{
  "title": "Peaky.Blinders.Season.1.Complete.HDTV.x264-SCENE",
  "uid": 9108058,
  "size": 1955931282,
  "categoryP": "video",
  "categoryS": "tv_shows",
  "magnet": "?xt=urn:btih:78a78043054d08934628b1e5dd4031e82baa3222&amp;dn=Peaky.Blinders.Season.1.Complete.HDTV.x264-SCENE&amp;tr=udp%3A%2F%2Ftracker.openbittorrent.com%3A80&amp;tr=udp%3A%2F%2Fopen.demonii.com%3A1337&amp;tr=udp%3A%2F%2Ftracker.coppersurfer.tk%3A6969&amp;tr=udp%3A%2F%2Fexodus.desync.com%3A6969",
  "seeders": 234,
  "leechers": 34,
  "uploader": "th3d4m4g3r",
  "files": -1,
  "time": 1382914759,
  "description": "My connection is slow. Please be patient. Please seed to a least 1.5 ratio so others can enjoy the show too. Thank You.\n\n-------------------------------------------\n\nPeaky.Blinders.Season.1.Complete.HDTV.x264-SCENE\nAired: 2013-09-12 - 2013-10-17\n\n-------------------------------------------\n\nFiles:\n\nPeaky.Blinders.S01E01.REPACK.HDTV.x264-TLA.mp4\nPeaky_Blinders.1x02.HDTV_x264-FoV.mp4\nPeaky_Blinders.1x03.HDTV_x264-FoV.mp4\nPeaky.Blinders.S01E04.PROPER.HDTV.x264-TLA.mp4\nPeaky_Blinders.1x05.HDTV_x264-FoV.mp4\nPeaky.Blinders.S01E06.HDTV.x264-RiVER.mp4\n\n-------------------------------------------\n\nMediaInfo:\n\nGeneral\nComplete name                            : Peaky.Blinders.S01E01.REPACK.HDTV.x264-TLA.mp4\nFormat                                   : MPEG-4\nFile size                                : 327 MiB\nDuration                                 : 56mn 51s\nOverall bit rate mode                    : Variable\nOverall bit rate                         : 805 Kbps\n\nVideo\nID                                       : 201\nFormat                                   : AVC\nFormat profile                           : &lt;a class=&quot;__cf_email__&quot; href=&quot;/cdn-cgi/l/email-protection&quot; data-cfemail=&quot;abe3c2ccc3ebe798859a&quot;&gt;[email&amp;#160;protected]&lt;/a&gt;&lt;script cf-hash='f9e31' type=&quot;text/javascript&quot;&gt;\n/* &lt;![CDATA[ */!function(){try{var t=&quot;currentScript&quot;in document?document.currentScript:function(){for(var t=document.getElementsByTagName(&quot;script&quot;),e=t.length;e--;)if(t[e].getAttribute(&quot;cf-hash&quot;))return t[e]}();if(t&amp;&amp;t.previousSibling){var e,r,n,i,c=t.previousSibling,a=c.getAttribute(&quot;data-cfemail&quot;);if(a){for(e=&quot;&quot;,r=parseInt(a.substr(0,2),16),n=2;a.length-n;n+=2)i=parseInt(a.substr(n,2),16)^r,e+=String.fromCharCode(i);e=document.createTextNode(e),c.parentNode.replaceChild(e,c)}}}catch(u){}}();/* ]]&gt; */&lt;/script&gt;\nFormat settings, CABAC                   : Yes\nFormat settings, ReFrames                : 5 frames\nBit rate                                 : 677 Kbps\nMaximum bit rate                         : 2 653 Kbps\nWidth                                    : 720 pixels\nHeight                                   : 388 pixels\nDisplay aspect ratio                     : 1.85:1\nFrame rate mode                          : Constant\nFrame rate                               : 25.000 fps\nColor space                              : YUV\nChroma subsampling                       : 4:2:0\nBit depth                                : 8 bits\nScan type                                : Progressive\nBits/(Pixel*Frame)                       : 0.097\nStream size                              : 275 MiB (84%)\nWriting library                          : x264 core 138 r2358 9e941d1\nEncoding settings                        : cabac=1 // deblock=1:0:0 / analyse=0x3:0x113 / me=umh / subme=8 / psy=1 / psy_rd=1.00:0.00 // me_range=16 / chroma_me=1 / trellis=1 / 8x8dct=1 / cqm=0 / deadzone=21,11 / fast_pskip=1 / chroma_qp_offset=-2 / threads=9 / lookahead_threads=1 / sliced_threads=0 / nr=0 / decimate=1 / interlaced=0 / bluray_compat=0 / constrained_intra=0 / bframes=3 / b_pyramid=2 / b_adapt=2 / b_bias=0 / direct=3 / weightb=1 / open_gop=0 / weightp=2 / keyint=250 / keyint_min=25 / scenecut=40 / intra_refresh=0 / rc_lookahead=50 / rc=crf / mbtree=1 / crf=19.0 / qcomp=0.60 / qpmin=0 / qpmax=69 / qpstep=4 / ip_ratio=1.40 / aq=1:1.00\n\n\nAudio\nFormat                                   : AAC\nFormat profile                           : LC\nBit rate mode                            : Variable\nBit rate                                 : 124 Kbps\nMaximum bit rate                         : 131 Kbps\nChannel(s)                               : 2 channels\nSampling rate                            : 48.0 KHz\nCompression mode                         : Lossy\nStream size                              : 50.4 MiB (15%)\n",
  "parsed": {
    "xt": "urn:btih:78a78043054d08934628b1e5dd4031e82baa3222",
    "dn": "Peaky.Blinders.Season.1.Complete.HDTV.x264-SCENE",
    "tr": [
      "udp://exodus.desync.com:6969",
      "udp://open.demonii.com:1337",
      "udp://tracker.coppersurfer.tk:6969",
      "udp://tracker.openbittorrent.com:80"
    ],
    "infoHash": "78a78043054d08934628b1e5dd4031e82baa3222",
    "infoHashBuffer": {
      "type": "Buffer",
      "data": [
        120,
        167,
        128,
        67,
        5,
        77,
        8,
        147,
        70,
        40,
        177,
        229,
        221,
        64,
        49,
        232,
        43,
        170,
        50,
        34
      ]
    },
    "name": "Peaky.Blinders.Season.1.Complete.HDTV.x264-SCENE",
    "announce": [
      "udp://exodus.desync.com:6969",
      "udp://open.demonii.com:1337",
      "udp://tracker.coppersurfer.tk:6969",
      "udp://tracker.openbittorrent.com:80"
    ],
    "urlList": []
  },
  "previous": 268,
  "peers": 0,
  "last_updated": "2016-12-25T05:17:25.177Z"
}